<?xml version="1.0" ?><!DOCTYPE svg  PUBLIC '-//W3C//DTD SVG 1.1//EN'  'http://www.w3.org/Graphics/SVG/1.1/DTD/svg11.dtd'><svg enable-background="new 0 0 100 100" height="100px" id="Layer_1" version="1.1" viewBox="0 0 100 100" width="100px" xml:space="preserve" xmlns="http://www.w3.org/2000/svg" xmlns:xlink="http://www.w3.org/1999/xlink"><g><rect fill="#FFFFFF" height="22.828" width="24.494" x="37.873" y="77.172"/><rect fill="#211915" height="3.127" width="79.746" x="10.127" y="96.873"/><polygon fill="#FF6D00" points="50,2.209 4.161,48.048 17.586,48.048 17.586,98.437 39.196,98.437 39.196,78.733 60.804,78.733    60.804,98.437 82.412,98.437 82.412,48.048 95.839,48.048  "/><path d="M83.976,100H59.24V80.299H40.76V100H16.023V49.612H0.386L50,0l49.613,49.612H83.976V100z M62.367,96.873   h18.481V46.485h11.216L50,4.422L7.936,46.485H19.15v50.388h18.483V77.172h24.734V96.873z" fill="#211915"/><polygon fill="#FFFFFF" points="23.522,45.022 12.018,45.022 41.073,15.966 43.284,18.177 19.567,41.895 23.522,41.895  "/></g></svg>